<?xml version="1.0" encoding="UTF-8"?>
<svg width="1236px" height="1300px" viewBox="0 0 1236 1300" version="1.1" xmlns="http://www.w3.org/2000/svg" xmlns:xlink="http://www.w3.org/1999/xlink">
    <!-- Generator: Sketch 51.2 (57519) - http://www.bohemiancoding.com/sketch -->
    <title>BotBlock</title>
    <desc>Created with Sketch.</desc>
    <defs></defs>
    <g id="Page-1" stroke="none" stroke-width="1" fill="none" fill-rule="evenodd">
        <g id="BotBlock" transform="translate(16.000000, 22.000000)" fill-rule="nonzero" stroke="#000000" stroke-width="32">
            <g id="4" transform="translate(430.000000, 894.000000)" fill="#359DC4">
                <path d="M17.2819426,85.1234123 L664.718057,85.1234123 C667.539901,85.1234123 670.213977,85.6398001 673.034005,87.1479674 C675.985263,88.7263178 678.397094,91.1381491 679.975445,94.0894077 C681.483612,96.9094354 682,99.5835112 682,102.405355 L682,367.123412 L0,367.123412 L0,102.405355 C0,99.5835112 0.5163879,96.9094354 2.0245552,94.0894077 C3.6029055,91.1381491 6.01473687,88.7263178 8.9659954,87.1479674 C11.7860231,85.6398001 14.4600989,85.1234123 17.2819426,85.1234123 Z" id="Rectangle-8"></path>
                <rect id="Rectangle-8" x="100" y="0" width="132" height="82" rx="1"></rect>
                <rect id="Rectangle-8" x="450" y="0" width="132" height="82" rx="1"></rect>
            </g>
            <g id="3" transform="translate(0.000000, 894.000000)" fill="#D56FAC">
                <rect id="Rectangle-8" x="113" y="0" width="132" height="82" rx="1"></rect>
                <path d="M17.2819426,85.1234123 L339.718057,85.1234123 C342.539901,85.1234123 345.213977,85.6398001 348.034005,87.1479674 C350.985263,88.7263178 353.397094,91.1381491 354.975445,94.0894077 C356.483612,96.9094354 357,99.5835112 357,102.405355 L357,367.123412 L0,367.123412 L0,102.405355 C0,99.5835112 0.5163879,96.9094354 2.0245552,94.0894077 C3.6029055,91.1381491 6.01473687,88.7263178 8.9659954,87.1479674 C11.7860231,85.6398001 14.4600989,85.1234123 17.2819426,85.1234123 Z" id="Rectangle-8"></path>
            </g>
            <g id="2" transform="translate(0.000000, 482.000000)" fill="#967ADC">
                <path d="M17.2819426,85.1234123 L664.718057,85.1234123 C667.539901,85.1234123 670.213977,85.6398001 673.034005,87.1479674 C675.985263,88.7263178 678.397094,91.1381491 679.975445,94.0894077 C681.483612,96.9094354 682,99.5835112 682,102.405355 L682,367.123412 L0,367.123412 L0,102.405355 C0,99.5835112 0.5163879,96.9094354 2.0245552,94.0894077 C3.6029055,91.1381491 6.01473687,88.7263178 8.9659954,87.1479674 C11.7860231,85.6398001 14.4600989,85.1234123 17.2819426,85.1234123 Z" id="Rectangle-8"></path>
                <rect id="Rectangle-8" x="100" y="0.1234123" width="132" height="82" rx="1"></rect>
                <rect id="Rectangle-8" x="450" y="0.1234123" width="132" height="82" rx="1"></rect>
            </g>
            <g id="1" transform="translate(811.141269, 328.943230) rotate(30.000000) translate(-811.141269, -328.943230) translate(469.641269, 146.443230)" fill="#4FC0E9">
                <path d="M18.2401988,82.8765877 L665.676314,82.8765877 C668.498157,82.8765877 671.172233,83.3929756 673.992261,84.9011429 C676.943519,86.4794933 679.355351,88.8913246 680.933701,91.8425831 C682.441868,94.6626108 682.958256,97.3366867 682.958256,100.15853 L682.958256,364.876588 L0.9582562,364.876588 L0.9582562,100.15853 C0.9582562,97.3366867 1.4746441,94.6626108 2.9828114,91.8425831 C4.5611617,88.8913246 6.9729931,86.4794933 9.92425163,84.9011429 C12.7442793,83.3929756 15.4183552,82.8765877 18.2401988,82.8765877 Z" id="Rectangle-8"></path>
                <rect id="Rectangle-8" x="101" y="0" width="132" height="82" rx="1"></rect>
                <rect id="Rectangle-8" x="451" y="0" width="132" height="82" rx="1"></rect>
            </g>
        </g>
    </g>
</svg>